<svg width="40" height="40" viewBox="0 0 40 40" fill="" xmlns="http://www.w3.org/2000/svg">
<g clip-path="url(#clip0_2035_13130)">
<path fill-rule="evenodd" clip-rule="evenodd" d="M39.5494 0.450605C40.1502 1.05141 40.1502 2.02551 39.5494 2.62632L2.62632 39.5494C2.02551 40.1502 1.05141 40.1502 0.450605 39.5494C-0.150202 38.9486 -0.150202 37.9745 0.450605 37.3737L37.3737 0.450605C37.9745 -0.150202 38.9486 -0.150202 39.5494 0.450605Z" fill=""/>
<path fill-rule="evenodd" clip-rule="evenodd" d="M0.450605 0.450605C1.05141 -0.150202 2.02551 -0.150202 2.62632 0.450605L39.5494 37.3737C40.1502 37.9745 40.1502 38.9486 39.5494 39.5494C38.9486 40.1502 37.9745 40.1502 37.3737 39.5494L0.450605 2.62632C-0.150202 2.02551 -0.150202 1.05141 0.450605 0.450605Z" fill=""/>
</g>
<defs>
<clipPath id="clip0_2035_13130">
<rect width="40" height="40" fill="white"/>
</clipPath>
</defs>
</svg>
