<svg width="20" height="29" viewBox="0 0 20 29" fill="" xmlns="http://www.w3.org/2000/svg">
<path fill-rule="evenodd" clip-rule="evenodd" d="M14.7647 12.4357C14.1415 13.0658 13.3996 13.5661 12.5818 13.9075C11.764 14.249 10.8866 14.4248 10.0004 14.4248C9.11415 14.4248 8.23673 14.249 7.41893 13.9075C6.60113 13.5661 5.85918 13.0658 5.23607 12.4357C4.29667 11.4873 3.65774 10.283 3.39916 8.97345C3.14059 7.66388 3.27387 6.30714 3.78232 5.07291C4.29077 3.83868 5.15182 2.78175 6.25779 2.03431C7.36376 1.28687 8.66556 0.882092 10.0004 0.870605C11.3377 0.879673 12.6426 1.28359 13.7513 2.03166C14.8599 2.77973 15.7228 3.83862 16.2318 5.0754C16.7407 6.31219 16.873 7.67175 16.612 8.98345C16.351 10.2951 15.7083 11.5005 14.7647 12.4482V12.4357ZM9.98779 4.56639C9.17264 4.56639 8.39088 4.89021 7.81448 5.46661C7.23807 6.04301 6.91426 6.82478 6.91426 7.63993C6.91426 8.45508 7.23807 9.23685 7.81448 9.81325C8.39088 10.3897 9.17264 10.7135 9.98779 10.7135C10.8029 10.7135 11.5847 10.3897 12.1611 9.81325C12.7375 9.23685 13.0613 8.45508 13.0613 7.63993C13.0613 6.82478 12.7375 6.04301 12.1611 5.46661C11.5847 4.89021 10.8029 4.56639 9.98779 4.56639ZM17.0777 14.447L19.0513 17.1622C19.1518 17.3005 19.1267 17.4891 19.001 17.5896C17.3663 18.9225 15.4487 19.8642 13.3945 20.3426L17.2034 27.7342C17.2296 27.7821 17.2429 27.8361 17.2419 27.8907C17.2409 27.9453 17.2257 27.9987 17.1978 28.0457C17.1699 28.0926 17.1302 28.1315 17.0827 28.1584C17.0352 28.1854 16.9815 28.1995 16.9268 28.1993H12.8413C12.7156 28.1993 12.6025 28.1239 12.5522 28.0108L10.0004 21.914L7.43594 28.0108C7.41141 28.067 7.37096 28.1148 7.31958 28.1483C7.26821 28.1818 7.20815 28.1995 7.14681 28.1993H3.06133C2.82249 28.1993 2.68421 27.9479 2.78478 27.7342L6.60627 20.3426C4.59496 19.8649 2.65907 18.9599 0.999736 17.5896C0.936609 17.5399 0.894918 17.4679 0.883228 17.3885C0.871538 17.309 0.890738 17.228 0.936882 17.1622L2.92306 14.4595C2.94904 14.4243 2.98184 14.3947 3.0195 14.3724C3.05717 14.35 3.09893 14.3355 3.14231 14.3297C3.18569 14.3238 3.22981 14.3267 3.27204 14.3382C3.31428 14.3497 3.35377 14.3696 3.38817 14.3967C5.20518 16.0398 7.55136 16.9765 10.0004 17.0365C12.4517 17.0365 14.7395 16.0057 16.6126 14.3967C16.7383 14.271 16.9645 14.2961 17.0777 14.447Z" fill=""/>
</svg>
