<svg width="23" height="20" viewBox="0 0 23 20" fill="" xmlns="http://www.w3.org/2000/svg">
<path d="M20.6448 1.02292C20.6448 1.02292 22.7268 0.213256 22.5533 2.17959C22.4955 2.98926 21.975 5.82309 21.5702 8.88826L20.1821 17.9681C20.1821 17.9681 20.0665 19.2983 19.0255 19.5296C17.9845 19.7609 16.423 18.7199 16.1338 18.4886C15.9025 18.3151 11.7963 15.7126 10.3505 14.4403C9.94565 14.0933 9.48298 13.3993 10.4083 12.5896L16.4808 6.80626C17.1748 6.11226 17.8688 4.49292 14.9772 6.45926L6.88048 11.9534C6.88048 11.9534 5.95515 12.5318 4.22015 12.0113L0.460982 10.8546C0.460982 10.8546 -0.927018 9.98709 1.44415 9.11959C7.22748 6.40142 14.341 3.62542 20.6448 1.02292Z" fill=""/>
</svg>
