<svg width="103" height="54" viewBox="0 0 103 54" fill="none" xmlns="http://www.w3.org/2000/svg">
<path d="M102.217 27.04C102.217 34.2208 96.6464 40.8546 87.403 45.7213C78.1822 50.5761 65.4246 53.5998 51.3459 53.5998C37.2675 53.5998 24.5099 50.5761 15.2891 45.7213C6.04553 40.8546 0.474654 34.2208 0.474654 27.04C0.474654 19.8581 6.04559 13.223 15.2891 8.35514C24.5099 3.4992 37.2675 0.474654 51.3459 0.474654C65.4246 0.474654 78.1822 3.4992 87.4029 8.35514C96.6464 13.223 102.217 19.8581 102.217 27.04Z" fill="#2E3191" stroke="white" stroke-width="0.949309"/>
<path fill-rule="evenodd" clip-rule="evenodd" d="M59.2265 9.146C57.6113 13.71 43.7871 15.1742 43.2806 9.146C43.2624 14.4228 46.4675 18.892 51.2158 18.892C55.9627 18.892 59.2048 14.4523 59.2265 9.146Z" fill="white"/>
<path fill-rule="evenodd" clip-rule="evenodd" d="M55.6328 11.0942C57.855 9.51407 58.2497 8.26544 57.125 8.05897C56.1372 7.87779 54.0442 8.18819 50.8643 8.97824C53.9513 7.39323 57.1292 7.06738 58.3363 7.45573C59.4519 7.81459 59.1152 9.60887 55.6328 11.0942Z" fill="white"/>
<path fill-rule="evenodd" clip-rule="evenodd" d="M45.3703 10.7805C42.5062 9.04375 44.6026 7.08443 44.8094 6.92853C45.9795 6.04859 48.2471 6.05491 50.3184 5.32104C50.1137 7.68136 50.5783 10.5038 45.3703 10.7805Z" fill="#B7DB9B"/>
<path d="M18.8125 29.7346L18.8957 29.7339L20.7923 21.5188C20.9237 20.9443 21.2031 20.4731 21.6285 20.1065C22.0469 19.743 22.5838 19.547 23.1368 19.556C23.7941 19.556 24.36 19.768 24.8322 20.1964C25.3059 20.6241 25.5958 21.1705 25.6999 21.8383L27.278 31.8168C27.3562 32.307 27.3967 32.6785 27.3967 32.9292C27.3967 33.9903 26.9042 34.5205 25.9227 34.5205C25.3457 34.5205 24.9279 34.2951 24.6646 33.845C24.4808 33.5542 24.3397 33.0697 24.2335 32.3955L22.9894 24.4023L22.9377 24.403L21.0843 31.7957C20.888 32.5521 20.6624 33.0949 20.4137 33.4243C20.0455 33.8885 19.5272 34.1202 18.8552 34.1202C18.1845 34.1202 17.6648 33.8885 17.2973 33.4243C17.0465 33.1069 16.8237 32.5633 16.6267 31.7957L14.7517 24.403L14.7209 24.4037L13.4977 32.3983C13.3929 33.0844 13.2462 33.5746 13.0625 33.866C12.7859 34.3035 12.3576 34.5205 11.7771 34.5205C10.7886 34.5205 10.2954 33.9903 10.2954 32.9292C10.2954 32.7705 10.3408 32.3997 10.433 31.8168L12.0104 21.8383C12.1159 21.1705 12.4009 20.6241 12.8676 20.1964C13.3329 19.768 13.8938 19.556 14.5512 19.556C15.1401 19.556 15.6424 19.735 16.0566 20.0967C16.4695 20.457 16.7489 20.9324 16.8935 21.5202L18.8125 29.7346ZM83.8136 29.7346L83.8961 29.7339L85.7948 21.5188C85.9255 20.9443 86.2042 20.4731 86.6324 20.1065C87.06 19.7393 87.5608 19.556 88.14 19.556C88.7973 19.556 89.3618 19.768 89.8354 20.1964C90.3091 20.6241 90.5976 21.1705 90.7024 21.8383L92.2812 31.8168C92.3594 32.307 92.3992 32.6785 92.3992 32.9292C92.3992 33.9903 91.9067 34.5205 90.9252 34.5205C90.3482 34.5205 89.9304 34.2951 89.6678 33.845C89.484 33.5542 89.3401 33.0697 89.2354 32.3955L87.9919 24.4023L87.9416 24.403L86.0854 31.7957C85.8891 32.5521 85.6642 33.0949 85.4155 33.4243C85.0473 33.8885 84.5276 34.1202 83.857 34.1202C83.1877 34.1202 82.668 33.8885 82.2991 33.4243C82.0497 33.1069 81.8262 32.5633 81.6285 31.7957L79.7549 24.403L79.7234 24.4037L78.5002 32.3983C78.394 33.0844 78.2494 33.5746 78.065 33.866C77.7877 34.3035 77.3587 34.5205 76.7803 34.5205C75.7911 34.5205 75.2965 33.9903 75.2965 32.9292C75.2965 32.7705 75.3419 32.3997 75.4348 31.8168L77.0122 21.8383C77.117 21.1705 77.4034 20.6241 77.8694 20.1964C78.3354 19.768 78.8956 19.556 79.553 19.556C80.1426 19.556 80.6442 19.735 81.0598 20.0967C81.4727 20.457 81.7507 20.9324 81.896 21.5202L83.8136 29.7346ZM31.8991 28.8884C31.8991 29.6019 32.071 30.2206 32.4154 30.7522C32.8268 31.3723 33.3878 31.6827 34.1003 31.6827C34.8136 31.6827 35.3774 31.3723 35.7888 30.7522C36.1304 30.2206 36.3037 29.6019 36.3037 28.8884C36.3037 28.1924 36.1234 27.5836 35.7672 27.0667C35.3564 26.474 34.8017 26.1741 34.1003 26.1741C33.3878 26.1741 32.8268 26.474 32.4154 27.0667C32.071 27.5716 31.8991 28.1798 31.8991 28.8884ZM28.8714 28.9284C28.8714 27.3399 29.3563 26.0035 30.3301 24.9248C31.3039 23.8447 32.5614 23.3054 34.1003 23.3054C35.668 23.3054 36.9275 23.8412 37.8825 24.9142C38.8367 25.988 39.3139 27.3258 39.3139 28.9284C39.3139 30.5197 38.843 31.8442 37.9013 32.9032C36.9219 33.9896 35.6547 34.5311 34.1003 34.5311C32.5614 34.5311 31.2941 33.984 30.3021 32.8857C29.3486 31.8238 28.8714 30.5064 28.8714 28.9284ZM66.4734 28.8884C66.4734 29.6019 66.6439 30.2206 66.9876 30.7522C67.399 31.3723 67.9607 31.6827 68.6732 31.6827C69.3872 31.6827 69.9496 31.3723 70.3617 30.7522C70.7033 30.2206 70.8745 29.6019 70.8745 28.8884C70.8745 28.1924 70.6977 27.5836 70.3401 27.0667C69.9286 26.474 69.3732 26.1741 68.6732 26.1741C67.9607 26.1741 67.399 26.474 66.9876 27.0667C66.6439 27.5716 66.4734 28.1798 66.4734 28.8884ZM63.4429 28.9284C63.4429 27.3399 63.9292 26.0035 64.903 24.9248C65.8761 23.8447 67.1336 23.3054 68.6732 23.3054C70.2402 23.3054 71.5004 23.8412 72.4547 24.9142C73.4089 25.988 73.8861 27.3258 73.8861 28.9284C73.8861 30.5197 73.4145 31.8442 72.4735 32.9032C71.4927 33.9896 70.2276 34.5311 68.6732 34.5311C67.1336 34.5311 65.8684 33.984 64.8743 32.8857C63.9201 31.8238 63.4429 30.5064 63.4429 28.9284ZM56.4955 29.8575L56.0219 30.2192V32.1504C56.0219 33.734 55.4966 34.5247 54.4445 34.5247C53.3792 34.5247 52.8468 33.7354 52.8468 32.1567V25.6537C52.8468 24.075 53.3792 23.2864 54.4445 23.2864C55.2465 23.2864 55.7397 23.7464 55.9234 24.6692C55.9898 24.9487 56.0219 25.7233 56.0219 26.9929L58.7443 24.1628C59.3101 23.5785 59.8564 23.2864 60.3818 23.2864C60.7492 23.2864 61.0657 23.3995 61.3297 23.627C61.5917 23.8538 61.723 24.1537 61.723 24.528C61.723 25.0617 61.4527 25.5835 60.9148 26.0912L58.7652 28.1138L61.7433 31.6595C62.1645 32.1686 62.3741 32.696 62.3741 33.2424C62.3741 33.6308 62.2204 33.9419 61.9117 34.175C61.6145 34.4039 61.25 34.5269 60.8757 34.5247C60.2448 34.5247 59.6909 34.2038 59.2186 33.5598L56.4955 29.8575ZM51.1053 33.0479C51.107 33.403 50.983 33.7471 50.7554 34.0187C50.5278 34.2903 50.2116 34.4717 49.8632 34.5304C49.6588 34.5297 49.4546 34.5189 49.2512 34.4981C49.0317 34.4401 48.8286 34.3317 48.6578 34.1814C48.487 34.0312 48.3532 33.8432 48.2669 33.6322C48.2436 33.5826 48.2254 33.5309 48.2124 33.4777L45.7821 26.3075L43.3552 33.4777C43.3429 33.5311 43.3246 33.5829 43.3007 33.6322C43.2146 33.8435 43.0807 34.0318 42.9096 34.1821C42.7385 34.3324 42.5349 34.4406 42.315 34.4981C42.1119 34.519 41.9079 34.5297 41.7037 34.5304C41.3555 34.4716 41.0394 34.2902 40.812 34.0186C40.5847 33.747 40.461 33.4029 40.463 33.0479C40.463 32.8969 40.4847 32.7466 40.528 32.6111C40.5399 32.5598 40.5581 32.5135 40.579 32.465C41.4397 29.9228 43.0171 25.2731 43.0171 25.2731C43.2223 24.7001 43.5975 24.2042 44.0919 23.8524C44.5864 23.5005 45.1763 23.3096 45.7821 23.3054C46.0342 23.3054 46.2753 23.337 46.5072 23.4002C46.9738 23.5213 47.4038 23.7552 47.7598 24.0817C48.1159 24.4081 48.3871 24.8171 48.5498 25.2731C48.5498 25.2731 50.1272 29.9228 50.9872 32.465C51.0096 32.5135 51.0263 32.5598 51.0417 32.6111C51.0822 32.7466 51.1053 32.8969 51.1053 33.0479Z" fill="white"/>
<path fill-rule="evenodd" clip-rule="evenodd" d="M53.89 11.5252C54.7828 10.8945 54.7849 10.3847 54.4741 10.1536C54.1206 9.96192 53.3326 10.0223 51.9326 10.0743C53.4933 9.66978 54.7172 9.46051 55.2753 9.78214C55.8761 10.1291 55.1063 11.0076 53.89 11.5252Z" fill="white"/>
<path d="M53.358 11.8689C51.1721 12.371 46.0906 12.1561 44.4839 9.89762C44.2693 9.60127 44.1243 9.25989 44.0598 8.89913C43.9953 8.53837 44.013 8.1676 44.1115 7.8147C42.4824 11.7425 49.1183 13.4216 53.358 11.8689Z" fill="url(#paint0_linear_3201_104)"/>
<path d="M70.4361 44.5579C66.5422 44.8332 57.2559 47.6114 48.6675 48.8073C40.2119 49.985 24.2905 50.8404 8.19092 41.4125C25.0652 49.2399 41.0411 41.7671 50.3658 41.0403C59.5033 40.3254 66.4514 42.81 70.4361 44.5579Z" fill="#B7DB9B"/>
<path d="M50.3656 41.0393C41.2079 41.7543 25.6344 48.9735 9.09473 41.8168C20.0185 47.7333 37.0409 47.9553 50.33 44.8126C57.5094 43.1159 65.0296 43.2311 70.436 44.5577C66.4512 42.8098 59.5031 40.3258 50.3656 41.0393Z" fill="#0DB14B"/>
<path fill-rule="evenodd" clip-rule="evenodd" d="M44.7268 10.116C41.7767 5.68538 49.0287 6.08286 50.3155 5.17554C50.3155 5.17554 50.1974 6.01474 49.0839 6.84974C48.386 7.37293 45.0726 7.81957 44.7268 10.116Z" fill="#0DB14B"/>
<defs>
<linearGradient id="paint0_linear_3201_104" x1="43.8049" y1="10.1287" x2="52.5601" y2="10.1287" gradientUnits="userSpaceOnUse">
<stop stop-color="#CEE4AD"/>
<stop offset="1" stop-color="white"/>
</linearGradient>
</defs>
</svg>
